<svg width="200" height="200" viewBox="0 0 200 200" xmlns="http://www.w3.org/2000/svg">
  <path d="M100,200 C80,160 120,120 100,80 C80,40 120,0 100,-40" fill="none" stroke="#8C3322" stroke-width="1.5" opacity="0.4"/>
  <path d="M100,140 C80,120 60,130 65,150 C80,142 95,140 100,140Z" fill="#8C3322" opacity="0.3"/>
  <path d="M100,140 C120,120 140,130 135,150 C120,142 105,140 100,140Z" fill="#8C3322" opacity="0.3"/>
  <path d="M100,60 C80,40 60,50 65,70 C80,62 95,60 100,60Z" fill="#8C3322" opacity="0.3"/>
  <path d="M100,60 C120,40 140,50 135,70 C120,62 105,60 100,60Z" fill="#8C3322" opacity="0.3"/>
</svg>
